<svg id="Layer_1" xmlns="http://www.w3.org/2000/svg" width="334.2" height="139" viewBox="0 0 334.2 139"><style>.st0{fill:#21abc7}</style><path class="st0" d="M50.4 111.2c.4-.4.6-1 .6-1.7 0-1.4-1.1-2.5-2.5-2.5s-2.5 1.1-2.5 2.5c0 .7.2 1.2.6 1.7-6.6.9-11.6 6.5-11.6 13.3 0 7.4 6 13.5 13.5 13.5S62 131.9 62 124.5c0-6.8-5-12.4-11.6-13.3zm-3.4-1.7c0-.8.7-1.5 1.5-1.5s1.5.7 1.5 1.5-.7 1.5-1.5 1.5-1.5-.7-1.5-1.5zm1.5 27.5c-6.9 0-12.5-5.6-12.5-12.5S41.6 112 48.5 112 61 117.6 61 124.5 55.4 137 48.5 137z"/><path class="st0" d="M48.5 115c-5.2 0-9.5 4.2-9.5 9.5s4.2 9.5 9.5 9.5 9.5-4.2 9.5-9.5-4.2-9.5-9.5-9.5zm.5 17.9V131h-1v1.9c-4.3-.2-7.7-3.7-8-7.9h2v-1h-2c.2-4.3 3.7-7.7 8-7.9v1.9h1v-1.9c4.3.2 7.7 3.7 8 7.9h-2v1h2c-.3 4.3-3.7 7.7-8 7.9z"/><path class="st0" d="M51.6 120.7l-1.7 1.7c-.4-.2-.9-.4-1.4-.4-1.4 0-2.5 1.1-2.5 2.5 0 .5.2 1 .4 1.4l-1.7 1.7c-.2.2-.2.5 0 .7.1.1.2.1.3.1s.2-.1.3-.1l1.7-1.7c.4.2.9.4 1.4.4 1.4 0 2.5-1.1 2.5-2.5 0-.5-.2-1-.4-1.4l1.7-1.7c.2-.2.2-.5 0-.7s-.4-.2-.6 0zm-3.1 5.3c-.8 0-1.5-.7-1.5-1.5s.7-1.5 1.5-1.5 1.5.7 1.5 1.5-.7 1.5-1.5 1.5zm36-13.6c-.8-1.4-2.2-2.4-4-2.4H69v25h31v-25H88.5c-1.7 0-3.3 1-4 2.4zM70 111h10.5c1.9 0 3.5 1.6 3.5 3.5v15.1c-.8-1-2.1-1.7-3.5-1.7H70V111zm0 18h10.5c1.9 0 3.5 1.6 3.5 3.5v1.5H70v-5zm29 5H85v-1.5c0-1.9 1.6-3.5 3.5-3.5H99v5zm0-6H88.5c-1.4 0-2.7.6-3.5 1.6v-15.1c0-1.9 1.6-3.5 3.5-3.5H99v17z"/><path class="st0" d="M72.5 115h8v1h-8zm0 4h8v1h-8zm0 4h8v1h-8zm0-2h8v1h-8zm0-4h8v1h-8zm16-2h8v1h-8zm0 2h8v1h-8zm0 4h8v1h-8zm0-2h8v1h-8zm0 4h4v1h-4zm46.5-7.5c0-2.5-2-4.5-4.5-4.5h-20c-2.5 0-4.5 2-4.5 4.5V129h-2v.5c0 2.5 2 4.5 4.5 4.5h24c2.5 0 4.5-2 4.5-4.5v-.5h-2v-13.5zm-28 0c0-1.9 1.6-3.5 3.5-3.5h20c1.9 0 3.5 1.6 3.5 3.5V129h-1v-14h-25v14h-1v-13.5zm25 13.5h-23v-13h23v13zm3.9 1c-.2 1.7-1.7 3-3.4 3h-24c-1.8 0-3.2-1.3-3.4-3h30.8z"/><circle class="st0" cx="120.5" cy="113.5" r=".5"/><path class="st0" d="M22.5 110h-20c-1.4 0-2.5 1.1-2.5 2.5v20c0 1.4 1.1 2.5 2.5 2.5h20c1.4 0 2.5-1.1 2.5-2.5v-20c0-1.4-1.1-2.5-2.5-2.5zm-20 1h20c.9 0 1.5.7 1.5 1.5v3.5H1v-3.5c0-.8.7-1.5 1.5-1.5zm20 23h-20c-.9 0-1.5-.6-1.5-1.5V117h23v15.5c0 .9-.6 1.5-1.5 1.5z"/><circle class="st0" cx="5" cy="113.5" r=".5"/><circle class="st0" cx="7.5" cy="113.5" r=".5"/><circle class="st0" cx="10" cy="113.5" r=".5"/><path class="st0" d="M4.5 120h16v1h-16zm0 2h16v1h-16zm0 2h16v1h-16zm0 2h8v1h-8zM144 40.5v20c0 1.4 1.1 2.5 2.5 2.5H160v4h9V38h-22.5c-1.4 0-2.5 1.1-2.5 2.5zM160 56h-15V45h15v11zm-13.5 6c-.9 0-1.5-.7-1.5-1.5V57h15v5h-13.5zM168 39v27h-7v-1h1.5v-1H161v-1h1.5v-1H161v-1h3.5v-1H161v-1h1.5v-1H161v-1h1.5v-1H161v-1h1.5v-1H161v-1h3.5v-1H161v-1h1.5v-1H161v-1h1.5v-1H161v-1h1.5v-1H161v-1h3.5v-1H161v-1h1.5v-1H161v-1h1.5v-1H161v-1h7zm-8 5h-15v-3.5c0-.8.6-1.5 1.5-1.5H160v5z"/><circle class="st0" cx="149" cy="41.5" r=".5"/><circle class="st0" cx="151.5" cy="41.5" r=".5"/><circle class="st0" cx="154" cy="41.5" r=".5"/><path class="st0" d="M132.5 90h16v1h-16z"/><path class="st0" d="M130.5 74c-1.4 0-2.5 1.1-2.5 2.5v20c0 1.4 1.1 2.5 2.5 2.5h20c1.4 0 2.5-1.1 2.5-2.5v-20c0-1.4-1.1-2.5-2.5-2.5h-20zm21.5 2.5v20c0 .8-.6 1.5-1.5 1.5h-20c-.9 0-1.5-.7-1.5-1.5v-20c0-.8.6-1.5 1.5-1.5h20c.9 0 1.5.7 1.5 1.5z"/><circle class="st0" cx="131" cy="77" r=".5"/><circle class="st0" cx="133.5" cy="77" r=".5"/><circle class="st0" cx="136" cy="77" r=".5"/><path class="st0" d="M132.5 80h8v1h-8zm0 12h12v1h-12zm0-10h12v1h-12zm4 2h12v1h-12zm0 4h8v1h-8zm0-2h4v1h-4zM117 75.5c0-.8-.7-1.5-1.5-1.5h-22c-.8 0-1.5.7-1.5 1.5v4c0 .8.7 1.5 1.5 1.5h22c.8 0 1.5-.7 1.5-1.5v-4zm-1 4c0 .3-.2.5-.5.5h-22c-.3 0-.5-.2-.5-.5v-4c0-.3.2-.5.5-.5h22c.3 0 .5.2.5.5v4zm-.5 12.5h-22c-.8 0-1.5.7-1.5 1.5v4c0 .8.7 1.5 1.5 1.5h22c.8 0 1.5-.7 1.5-1.5v-4c0-.8-.7-1.5-1.5-1.5zm.5 5.5c0 .3-.2.5-.5.5h-22c-.3 0-.5-.2-.5-.5v-4c0-.3.2-.5.5-.5h22c.3 0 .5.2.5.5v4zm1-13c0-.8-.7-1.5-1.5-1.5h-22c-.8 0-1.5.7-1.5 1.5v4c0 .8.7 1.5 1.5 1.5h22c.8 0 1.5-.7 1.5-1.5v-4zm-1 4c0 .3-.2.5-.5.5h-22c-.3 0-.5-.2-.5-.5v-4c0-.3.2-.5.5-.5h22c.3 0 .5.2.5.5v4z"/><path class="st0" d="M108.5 86h5v1h-5zm0 9h5v1h-5zm0-18h5v1h-5zm-68.3-2H24.8l-7.1 7.5 14.8 16.8 14.8-16.8-7.1-7.5zm-14 8l4.9 13.2L19.5 83h6.7zm11.6 0l-5.3 14.1L27.2 83h10.6zm-10.2-1l4.9-5.8 4.9 5.8h-9.8zm11.2 1h6.7L33.9 96.2 38.8 83zm6.7-1h-6.8l-5.2-6h6.2l5.8 6zm-20.3-6h6.2l-5.1 6h-6.8l5.7-6zm35.3-2C58 74 56 76 56 78.5v16c0 2.5 2 4.5 4.5 4.5h16c2.5 0 4.5-2 4.5-4.5v-16c0-2.5-2-4.5-4.5-4.5h-16zM80 78.5v16c0 1.9-1.6 3.5-3.5 3.5h-16c-2 0-3.5-1.6-3.5-3.5v-16c0-1.9 1.5-3.5 3.5-3.5h16c1.9 0 3.5 1.6 3.5 3.5z"/><path class="st0" d="M74.5 85c.3 0 .5-.2.5-.5s-.2-.5-.5-.5H73v-.5c0-.8-.7-1.5-1.5-1.5H71v-1.5c0-.3-.2-.5-.5-.5s-.5.2-.5.5V82h-1v-1.5c0-.3-.2-.5-.5-.5s-.5.2-.5.5V82h-1v-1.5c0-.3-.2-.5-.5-.5s-.5.2-.5.5V82h-.5c-.8 0-1.5.7-1.5 1.5v.5h-1.5c-.3 0-.5.2-.5.5s.2.5.5.5H64v1h-1.5c-.3 0-.5.2-.5.5s.2.5.5.5H64v1h-1.5c-.3 0-.5.2-.5.5s.2.5.5.5H64v.5c0 .8.7 1.5 1.5 1.5h.5v1.5c0 .3.2.5.5.5s.5-.2.5-.5V91h1v1.5c0 .3.2.5.5.5s.5-.2.5-.5V91h1v1.5c0 .3.2.5.5.5s.5-.2.5-.5V91h.5c.8 0 1.5-.7 1.5-1.5V89h1.5c.3 0 .5-.2.5-.5s-.2-.5-.5-.5H73v-1h1.5c.3 0 .5-.2.5-.5s-.2-.5-.5-.5H73v-1h1.5zM72 89.5c0 .3-.2.5-.5.5h-6c-.3 0-.5-.2-.5-.5v-6c0-.3.2-.5.5-.5h6c.3 0 .5.2.5.5v6zm38-43c0 3.3 1.6 6.3 4 8.2v10.6l6.5-3.2 6.5 3.2V54.8c2.4-1.9 4-4.9 4-8.2 0-5.8-4.7-10.5-10.5-10.5S110 40.7 110 46.5zm5 9c.7.4 1.3.7 2 1v6.3l-2 1v-8.3zm3 6.7v-5.5c.8.2 1.7.3 2.5.3s1.7-.1 2.5-.3v5.5l-2.5-1.2-2.5 1.2zm8 1.5l-2-1v-6.3c.7-.2 1.3-.5 2-1v8.3zm4-17.2c0 5.2-4.2 9.5-9.5 9.5s-9.5-4.2-9.5-9.5 4.2-9.5 9.5-9.5 9.5 4.2 9.5 9.5z"/><path class="st0" d="M113 46.5c0 4.2 3.3 7.5 7.5 7.5s7.5-3.3 7.5-7.5-3.3-7.5-7.5-7.5-7.5 3.3-7.5 7.5zm14 0c0 3.6-2.9 6.5-6.5 6.5s-6.5-2.9-6.5-6.5 2.9-6.5 6.5-6.5 6.5 2.9 6.5 6.5zm-48.8-7.6l-1.2.5-5.2 5.2-.4 1.2-.2.2h.1L70 49.2l3 3 3.2-1.2h.1l.1-.1 1.2-.5.9-1 2.3 2.5-6.5 6.1c-.4.4-.7 1-.8 1.6 0 .6.2 1.2.7 1.6l1.2 1.2c.4.4 1 .7 1.6.7h.1c.6 0 1.2-.2 1.6-.7l5.8-6.2 5.8 6.2c.4.5 1 .7 1.6.8h.1c.6 0 1.2-.2 1.6-.7l1.2-1.2c.4-.5.7-1 .7-1.6s-.2-1.2-.8-1.6l-6.4-5.9 2.3-2.5.9 1 1.2.5.1.1h.1l3.2 1.2 3-3-1.4-3.5h.1l-.1-.1-.4-1.2-5.3-5.2-1.2-.5h-.2l-3.2-1.2-3 3 1.2 3.2h-.1l.1.1.4 1.2.9 1-2.7 2.5-2.7-2.5.9-1 .4-1.2.1-.1h-.1l1.2-3.2-3-3-2.8 1.1zm-5 12.2L71.1 49l.8-2.2 3.4 3.5-2.1.8zM94 58.8c.2.2.4.5.4.9 0 .3-.1.7-.3.9l-1.2 1.2c-.2.2-.6.3-.9.3s-.8-.1-1-.3l-5.8-6.3 2.4-2.6 6.4 5.9zm3.9-9.8l-2.1 2.1-2.2-.8 3.4-3.5.9 2.2zm-12.2-8l2.1-2.1 2.2.8-3.4 3.5-.9-2.2zm1.2 3.2l4.1-4 .5.2 4.9 5 .2.5-4.1 4-.5-.2-4.9-5-.2-.5zm3 4.7L78 61.8c-.2.2-.6.4-.9.4s-.7-.1-.9-.3L75 60.7c-.2-.2-.3-.5-.3-.9 0-.3.2-.7.4-.9L88 47l1.9 1.9zm-6.1.4l-2.3 2.1-2.5-2.6 2-2 2.8 2.5zm-6.9.4l-.5.2-4.1-4 .2-.5 4.9-5 .5-.2 4.1 4-.2.5-4.9 5zm4.3-10.8l2.1 2.1-.8 2.2-3.5-3.4 2.2-.9z"/><path class="st0" d="M76.2 44c-.6.5-.6 1.5 0 2 .2.2.7.4 1 .4s.7-.2 1-.4c.6-.5.6-1.5 0-2-.5-.5-1.4-.5-2 0zm1.2 1.2c-.2.2-.4.2-.6 0s-.2-.4 0-.5c.1-.1.2-.1.3-.1s.2 0 .3.1c.3.1.3.4 0 .5zM92.8 44c-.6-.5-1.4-.5-2 0s-.6 1.5 0 2c.2.2.7.4 1 .4s.7-.2 1-.4c.5-.5.5-1.5 0-2zm-.7 1.2c-.2.2-.4.2-.6 0s-.2-.4 0-.5c.1-.1.2-.1.3-.1s.2 0 .3.1c.1.1.1.4 0 .5zM34.5 43c-1.4 0-2.5 1.1-2.5 2.5v13c0 1.4 1.1 2.5 2.5 2.5h28c1.4 0 2.5-1.1 2.5-2.5v-13c0-1.4-1.1-2.5-2.5-2.5H49v-8.5h-1V43H34.5zM64 45.5v13c0 .8-.7 1.5-1.5 1.5h-28c-.8 0-1.5-.7-1.5-1.5v-13c0-.8.7-1.5 1.5-1.5h28c.8 0 1.5.7 1.5 1.5z"/><path class="st0" d="M40 58h17v-3h4v-9H36v9h4v3zm16-1H41v-2h15v2zm-3-3v-3h3v3h-3zm-8 0v-3h3v3h-3zm4-3h3v3h-3v-3zm4-1v-3h3v3h-3zm-1 0h-3v-3h3v3zm-4 0h-3v-3h3v3zm-4 0h-3v-3h3v3zm0 1v3h-3v-3h3zm13 3v-3h3v3h-3zm3-4h-3v-3h3v3zm-20-3v3h-3v-3h3zm-3 4h3v3h-3v-3z"/><circle class="st0" cx="20.5" cy="55.5" r=".5"/><circle class="st0" cx="20.5" cy="42.5" r=".5"/><path class="st0" d="M4 46v5.5C4 54 6 56 8.5 56h8.6c.2 1.5 1.5 2.8 3 3v7.5h1V59c1.7-.2 3-1.7 3-3.5s-1.3-3.2-3-3.5v-6c1.7-.2 3-1.7 3-3.5 0-2-1.5-3.5-3.5-3.5S17 40.5 17 42.5c0 1.8 1.3 3.2 3 3.5v6c-1.5.2-2.8 1.5-3 3H8.5C6.6 55 5 53.5 5 51.5V46c1.7-.2 3-1.7 3-3.5 0-2-1.6-3.5-3.5-3.5S1 40.5 1 42.5c0 1.7 1.3 3.2 3 3.5zm14-3.5c0-1.4 1.1-2.5 2.5-2.5s2.5 1.1 2.5 2.5-1.1 2.5-2.5 2.5-2.5-1.1-2.5-2.5zM20.5 53c1.4 0 2.5 1.1 2.5 2.5S21.9 58 20.5 58 18 56.9 18 55.5s1.1-2.5 2.5-2.5zm-16-13C5.9 40 7 41.1 7 42.5S5.9 45 4.5 45 2 43.9 2 42.5 3.1 40 4.5 40z"/><circle class="st0" cx="4.5" cy="42.5" r=".5"/><path class="st0" d="M187.1 82.2c-1.7-3.8-5.4-6.2-9.6-6.2-5.7 0-10.4 4.6-10.5 10.2-.5-.2-1-.2-1.5-.2-3.1 0-5.5 2.4-5.5 5.5s2.4 5.5 5.5 5.5h20c4.1 0 7.5-3.3 7.5-7.5 0-3.6-2.5-6.6-5.9-7.3zM185.5 96h-20c-2.5 0-4.5-2-4.5-4.5s2-4.5 4.5-4.5c.6 0 1.2.2 1.8.4l.8.3-.1-1v-.2c0-5.2 4.2-9.5 9.5-9.5 3.9 0 7.2 2.3 8.8 5.8l.1.2.2.1c3.1.6 5.4 3.2 5.4 6.4 0 3.6-2.9 6.5-6.5 6.5zM229 74h-33v22h33V74zm-1 21h-31V75h31v20zm-23.5 3h16v1h-16z"/><path class="st0" d="M210.9 88.7l-3.7-3.7 3.7-3.7-.8-.6-4.3 4.3 4.3 4.3zm4 .6l4.3-4.3-4.3-4.3-.8.6 3.7 3.7-3.7 3.7zM162.5 106h-12c-2.5 0-4.5 2-4.5 4.5v24c0 2.5 2 4.5 4.5 4.5h12c2.5 0 4.5-2 4.5-4.5v-24c0-2.5-2-4.5-4.5-4.5zm3.5 28.5c0 1.9-1.6 3.5-3.5 3.5h-12c-1.9 0-3.5-1.6-3.5-3.5v-24c0-1.9 1.6-3.5 3.5-3.5h12c1.9 0 3.5 1.6 3.5 3.5v24z"/><path class="st0" d="M148 133h17v-21h-17v21zm1-20h15v19h-15v-19zm4.5-4h4v1h-4z"/><circle class="st0" cx="159" cy="109.5" r=".5"/><path class="st0" d="M156.5 134c-.9 0-1.5.6-1.5 1.5s.6 1.5 1.5 1.5 1.5-.6 1.5-1.5-.6-1.5-1.5-1.5zm0 2c-.3 0-.5-.2-.5-.5s.2-.5.5-.5.5.2.5.5-.2.5-.5.5zm50-26h-28c-1.4 0-2.5 1.1-2.5 2.5v18c0 1.4 1.1 2.5 2.5 2.5h28c1.4 0 2.5-1.1 2.5-2.5v-18c0-1.4-1.1-2.5-2.5-2.5zm0 22h-28c-.9 0-1.5-.6-1.5-1.5v-2c.4.3.9.5 1.5.5h28c.6 0 1.1-.2 1.5-.5v2c0 .9-.6 1.5-1.5 1.5zm1.5-5.5c0 .8-.6 1.5-1.5 1.5h-28c-.9 0-1.5-.7-1.5-1.5v-14c0-.8.6-1.5 1.5-1.5h28c.9 0 1.5.7 1.5 1.5v14z"/><path class="st0" d="M178 127h29v-15h-29v15zm1-14h27v13h-27v-13z"/><path class="st0" d="M187.5 114.5h-4v3h-3v4h3v3h4v-3h3v-4h-3v-3zm2 4v2h-3v3h-2v-3h-3v-2h3v-3h2v3h3zM202 115c-1.4 0-2.5 1.1-2.5 2.5s1.1 2.5 2.5 2.5 2.5-1.1 2.5-2.5-1.1-2.5-2.5-2.5zm0 4c-.9 0-1.5-.7-1.5-1.5s.6-1.5 1.5-1.5 1.5.7 1.5 1.5-.6 1.5-1.5 1.5zm-5.5 0c-1.4 0-2.5 1.1-2.5 2.5s1.1 2.5 2.5 2.5 2.5-1.1 2.5-2.5-1.1-2.5-2.5-2.5zm0 4c-.9 0-1.5-.7-1.5-1.5s.6-1.5 1.5-1.5 1.5.7 1.5 1.5-.6 1.5-1.5 1.5zm-4-63c5.2 0 9.5-4.2 9.5-9.5s-4.2-9.5-9.5-9.5-9.5 4.2-9.5 9.5 4.2 9.5 9.5 9.5zm0-18c4.7 0 8.5 3.8 8.5 8.5s-3.8 8.5-8.5 8.5-8.5-3.8-8.5-8.5 3.8-8.5 8.5-8.5z"/><path class="st0" d="M180 50.5c0 6.9 5.6 12.5 12.5 12.5S205 57.4 205 50.5 199.4 38 192.5 38 180 43.6 180 50.5zM192.5 39c6.4 0 11.5 5.2 11.5 11.5S198.9 62 192.5 62 181 56.8 181 50.5 186.1 39 192.5 39z"/><path class="st0" d="M196.9 48.3l-.8-.6-5.1 5.1-2.6-2.6-.8.6 3.4 3.4zm99.6 8.7c-.9 0-1.5.7-1.5 1.5s.6 1.5 1.5 1.5 1.5-.7 1.5-1.5-.6-1.5-1.5-1.5zm0 2c-.3 0-.5-.2-.5-.5s.2-.5.5-.5.5.2.5.5-.2.5-.5.5z"/><circle class="st0" cx="290" cy="54" r=".5"/><circle class="st0" cx="294" cy="50" r=".5"/><path class="st0" d="M302.5 40.9v9.3l-2.1 3.3c-.8-1.7-2.1-3.1-3.9-3.9v-6.7c.6-.2 1-.8 1-1.4 0-.8-.6-1.5-1.5-1.5h-5c-.9 0-1.5.7-1.5 1.5 0 .7.4 1.2 1 1.4v6.7c-2.7 1.2-4.5 3.9-4.5 6.8 0 4.2 3.4 7.5 7.5 7.5 1 0 2-.2 3-.6.5.4 1.2.6 2 .6h14c1.2 0 2.2-.5 2.6-1.2.5-.8.3-1.8-.4-2.9l-6.2-9.6v-9.3c.6-.2 1-.8 1-1.4 0-.8-.6-1.5-1.5-1.5h-5c-.9 0-1.5.7-1.5 1.5 0 .7.4 1.2 1 1.4zM291 41h5c.3 0 .5.2.5.5s-.2.5-.5.5h-5c-.3 0-.5-.2-.5-.5s.2-.5.5-.5zm.2 9.5l.3-.1V43h4v7.3l.3.1c1.4.5 2.5 1.5 3.3 2.8-.5-.2-1-.2-1.6-.2-2.2 0-3.4 1.2-4.4 2.2s-1.9 1.8-3.6 1.8c-1.2 0-2-.4-2.5-.8.1-2.5 1.8-4.9 4.2-5.7zm-4.2 6.9c.6.3 1.4.6 2.5.6 2.2 0 3.4-1.2 4.4-2.2s1.9-1.8 3.6-1.8c.9 0 1.5.2 2.2.7.2.6.3 1.2.3 1.8 0 3.6-2.9 6.5-6.5 6.5-3.3 0-6-2.5-6.5-5.6zm27.2 4.8c-.2.5-.9.8-1.8.8h-14c-.4 0-.8 0-1-.2 1.7-1.1 3-2.8 3.4-4.9h.6c2.2 0 3.4-1.2 4.4-2.2s1.9-1.8 3.6-1.8h.2l4.1 6.4c.7.9.8 1.5.5 1.9zm-5.1-9.2c-2 .1-3 1.2-4 2.1-1 1-1.9 1.8-3.6 1.8h-.5v-.5c0-.6-.1-1.2-.2-1.8l2.7-4.2V41h4v9.5l1.6 2.5zM303 39h5c.3 0 .5.2.5.5s-.2.5-.5.5h-5c-.3 0-.5-.2-.5-.5s.2-.5.5-.5z"/><circle class="st0" cx="304" cy="54" r=".5"/><circle class="st0" cx="305" cy="43" r=".5"/><path class="st0" d="M305.5 48c-.9 0-1.5.7-1.5 1.5s.6 1.5 1.5 1.5 1.5-.7 1.5-1.5-.6-1.5-1.5-1.5zm0 2c-.3 0-.5-.2-.5-.5s.2-.5.5-.5.5.2.5.5-.2.5-.5.5zM331 86.5c0-.8-.1-1.5-.2-2.2l3.5-2.9-2.4-4.2-4.2 1.6c-1.1-1-2.5-1.8-3.9-2.2L323 72h-4.9l-.8 4.5c-1.5.4-2.8 1.2-3.9 2.2l-4.2-1.6-2.4 4.2 3.5 2.9c-.1.8-.2 1.5-.2 2.2s.1 1.5.2 2.2l-3.5 2.9 2.4 4.2 4.2-1.6c1.1 1 2.5 1.8 3.9 2.2l.8 4.5h4.9l.8-4.5c1.5-.4 2.8-1.2 3.9-2.2l4.2 1.6 2.4-4.2-3.5-2.9c.1-.6.2-1.4.2-2.1zm2 5.4l-1.6 2.8-4-1.5-.2.2c-1.1 1.1-2.5 1.9-4 2.3l-.3.1-.7 4.3H319l-.7-4.3-.3-.1c-1.5-.4-2.9-1.2-4-2.3l-.2-.2-4 1.5-1.6-2.8 3.4-2.8-.1-.3c-.2-.8-.3-1.6-.3-2.3s.1-1.6.3-2.3l.1-.3-3.4-2.8 1.6-2.8 4 1.5.2-.2c1.1-1.1 2.5-1.9 4-2.3l.3-.1.7-4.2h3.1l.7 4.3.3.1c1.5.4 2.9 1.2 4 2.3l.2.2 4-1.5 1.6 2.8-3.4 2.8.1.3c.2.8.3 1.6.3 2.3s-.1 1.6-.3 2.3l-.1.3 3.5 2.7z"/><path class="st0" d="M320.5 80c-3.6 0-6.5 2.9-6.5 6.5s2.9 6.5 6.5 6.5 6.5-2.9 6.5-6.5-2.9-6.5-6.5-6.5zm0 12c-3 0-5.5-2.4-5.5-5.5s2.5-5.5 5.5-5.5 5.5 2.4 5.5 5.5-2.5 5.5-5.5 5.5z"/><path class="st0" d="M320.5 84c-1.4 0-2.5 1.1-2.5 2.5s1.1 2.5 2.5 2.5 2.5-1.1 2.5-2.5-1.1-2.5-2.5-2.5zm0 4c-.9 0-1.5-.7-1.5-1.5s.6-1.5 1.5-1.5 1.5.7 1.5 1.5-.6 1.5-1.5 1.5zm-6 23h-28c-1.4 0-2.5 1.1-2.5 2.5v18c0 1.4 1.1 2.5 2.5 2.5h28c1.4 0 2.5-1.1 2.5-2.5v-18c0-1.4-1.1-2.5-2.5-2.5zm1.5 20.5c0 .9-.6 1.5-1.5 1.5h-28c-.9 0-1.5-.6-1.5-1.5v-18c0-.8.6-1.5 1.5-1.5h28c.9 0 1.5.7 1.5 1.5v18z"/><path class="st0" d="M312.5 129h-17c-.2-1.2-1.2-2-2.5-2s-2.2.8-2.5 2h-2c-.3 0-.5.2-.5.5s.2.5.5.5h2c.2 1.1 1.2 2 2.5 2s2.2-.9 2.5-2h17c.3 0 .5-.2.5-.5s-.2-.5-.5-.5zm-19.5 2c-.9 0-1.5-.6-1.5-1.5s.6-1.5 1.5-1.5c.8 0 1.5.6 1.5 1.5s-.7 1.5-1.5 1.5z"/><circle class="st0" cx="293" cy="129.5" r=".5"/><path class="st0" d="M297.2 123.9c.1.1.1.1.2.1s.1 0 .2-.1l6-3c.1-.1.3-.2.3-.4s-.1-.3-.3-.4l-6-3c-.1-.1-.4-.1-.5 0-.1.1-.2.2-.2.4v6c.1.2.2.3.3.4zm.8-5.6l4.4 2.2-4.4 2.2v-4.4zM264.5 60c5.2 0 9.5-4.2 9.5-9.5s-4.2-9.5-9.5-9.5-9.5 4.2-9.5 9.5 4.2 9.5 9.5 9.5zm-5.4-3c.5-2.6 2.8-4.5 5.4-4.5 2.7 0 5 2 5.4 4.5-1.5 1.2-3.4 2-5.4 2s-4-.8-5.4-2zm5.4-15c4.7 0 8.5 3.8 8.5 8.5 0 2.2-.9 4.2-2.2 5.8-.8-2.8-3.3-4.8-6.2-4.8s-5.5 2-6.2 4.8c-1.4-1.5-2.2-3.5-2.2-5.8-.2-4.7 3.6-8.5 8.3-8.5z"/><path class="st0" d="M252 50.5c0 6.9 5.6 12.5 12.5 12.5S277 57.4 277 50.5 271.4 38 264.5 38 252 43.6 252 50.5zM264.5 39c6.4 0 11.5 5.2 11.5 11.5S270.9 62 264.5 62 253 56.8 253 50.5 258.1 39 264.5 39z"/><path class="st0" d="M264.5 50.5c2 0 3.5-1.5 3.5-3.5s-1.5-3.5-3.5-3.5S261 45 261 47s1.5 3.5 3.5 3.5zm0-6c1.4 0 2.5 1.1 2.5 2.5s-1.1 2.5-2.5 2.5-2.5-1.1-2.5-2.5 1.1-2.5 2.5-2.5zM274 23v3.5c0 .2.1.4.3.5h.2c.1 0 .2 0 .3-.1l4.9-3.9h5.9c2.5 0 4.5-2 4.5-4.5v-2.9l4.2 3.3c.1 0 .2.1.3.1h.2c.1-.1.3-.2.3-.5v-3.6c2.2-.2 4-2.2 4-4.4v-4c0-2.5-2-4.5-4.5-4.5h-12C280 2 278 4 278 6.5V10h-3.5c-2.5 0-4.5 2-4.5 4.5v4c0 2.3 1.8 4.2 4 4.5zm5-16.5c0-1.9 1.5-3.5 3.5-3.5h12c2 0 3.5 1.6 3.5 3.5v4c0 1.9-1.5 3.5-3.5 3.5-.3 0-.5.2-.5.5v3l-4.2-3.4c-.1-.1-.2-.1-.3-.1h-7c-2 0-3.5-1.6-3.5-3.5v-4zm-8 8c0-1.9 1.5-3.5 3.5-3.5h3.5c.2 2.2 2.1 4 4.5 4h6.5v3.5c0 2-1.5 3.5-3.5 3.5h-6c-.1 0-.2 0-.3.1l-4.2 3.4v-3c0-.3-.2-.5-.5-.5-2 0-3.5-1.5-3.5-3.5v-4zm3 76.5h15V76h-15v15zm9-1h-7.3l7.3-7.3V90zm1 0v-7.3l4 4V90h-4zm4-13v8.3l-4.1-4.2v-.2h-.2v.2l-8.3 8.2V77H288z"/><path class="st0" d="M297 97.5v-19c0-.8-.6-1.5-1.5-1.5H291v-1.5c0-.8-.6-1.5-1.5-1.5h-16c-.9 0-1.5.7-1.5 1.5v19c0 .8.6 1.5 1.5 1.5h4.5v1.5c0 .8.6 1.5 1.5 1.5h16c.9 0 1.5-.7 1.5-1.5zM291 80h3v13h-3V80zm-18 14.5v-19c0-.3.2-.5.5-.5h16c.3 0 .5.2.5.5v19c0 .3-.2.5-.5.5h-16c-.3 0-.5-.2-.5-.5zm6 3V96h10.5c.9 0 1.5-.7 1.5-1.5V94h4V79h-4v-1h4.5c.3 0 .5.2.5.5v19c0 .3-.2.5-.5.5h-16c-.3 0-.5-.2-.5-.5z"/><path class="st0" d="M278.5 83c1.4 0 2.5-1.1 2.5-2.5s-1.1-2.5-2.5-2.5-2.5 1.1-2.5 2.5 1.1 2.5 2.5 2.5zm0-4c.9 0 1.5.7 1.5 1.5s-.6 1.5-1.5 1.5-1.5-.7-1.5-1.5.6-1.5 1.5-1.5zM216 40.5v8c0 .8.6 1.5 1.5 1.5h12c.9 0 1.5-.7 1.5-1.5v-8c0-.8-.6-1.5-1.5-1.5h-12c-.9 0-1.5.7-1.5 1.5zm14 0v8c0 .3-.2.5-.5.5h-12c-.3 0-.5-.2-.5-.5v-8c0-.3.2-.5.5-.5h12c.3 0 .5.2.5.5zm11 20v-8c0-.8-.6-1.5-1.5-1.5h-12c-.9 0-1.5.7-1.5 1.5v8c0 .8.6 1.5 1.5 1.5h12c.9 0 1.5-.7 1.5-1.5zm-14 0v-8c0-.3.2-.5.5-.5h12c.3 0 .5.2.5.5v8c0 .3-.2.5-.5.5h-12c-.3 0-.5-.2-.5-.5zm6.5-10.5h6c.9 0 1.5-.7 1.5-1.5v-8c0-.8-.6-1.5-1.5-1.5h-6c-.9 0-1.5.7-1.5 1.5v8c0 .8.6 1.5 1.5 1.5zm-.5-9.5c0-.3.2-.5.5-.5h6c.3 0 .5.2.5.5v8c0 .3-.2.5-.5.5h-6c-.3 0-.5-.2-.5-.5v-8zM217.5 62h6c.9 0 1.5-.7 1.5-1.5v-8c0-.8-.6-1.5-1.5-1.5h-6c-.9 0-1.5.7-1.5 1.5v8c0 .8.6 1.5 1.5 1.5zm-.5-9.5c0-.3.2-.5.5-.5h6c.3 0 .5.2.5.5v8c0 .3-.2.5-.5.5h-6c-.3 0-.5-.2-.5-.5v-8zm18 57.5h-13v3h-4v4.5c0 2.5 2 4.5 4.5 4.5.5 0 .9-.1 1.4-.2 1 1.6 2.4 3 4.1 4v1.7c0 .9-.6 1.5-1.5 1.5H224v4h9v-4h-2.5c-.9 0-1.5-.6-1.5-1.5v-1.7c1.6-1 3.1-2.4 4.1-4 .4.2.9.2 1.4.2 2.5 0 4.5-2 4.5-4.5V113h-4v-3zm-3 20v2h-7v-2h7zm-9.5-9c-1.9 0-3.5-1.6-3.5-3.5V114h3v1.1c0 2.1.5 4 1.4 5.8-.3 0-.6.1-.9.1zm6 3.9c-3.4-2.1-5.5-5.8-5.5-9.8V111h11v4.1c0 4-2.1 7.7-5.5 9.8zM238 114v3.5c0 1.9-1.6 3.5-3.5 3.5-.3 0-.6-.1-.9-.2.9-1.8 1.4-3.8 1.4-5.8v-1h3zm-15.5 20h12v1h-12zm45-24c-5.2 0-9.5 4.2-9.5 9.5 0 2.4 1 4.7 2.5 6.3l-1 .9-1-1-6.7 6.7 2.7 2.7 6.7-6.8-1-.9 1-.9c1.7 1.5 3.9 2.4 6.4 2.4 5.2 0 9.5-4.2 9.5-9.5s-4.3-9.4-9.6-9.4zm-13 23.8l-1.3-1.3.8-.8 1.3 1.3-.8.8zm1.5-1.5l-1.3-1.3 3.8-3.8 1.3 1.2-3.8 3.9zm11.5-4.3c-4.7 0-8.5-3.8-8.5-8.5s3.8-8.5 8.5-8.5 8.5 3.8 8.5 8.5-3.8 8.5-8.5 8.5z"/><path class="st0" d="M267.5 112c-4.1 0-7.5 3.3-7.5 7.5s3.4 7.5 7.5 7.5 7.5-3.3 7.5-7.5-3.4-7.5-7.5-7.5zm0 14c-3.6 0-6.5-2.9-6.5-6.5s2.9-6.5 6.5-6.5 6.5 2.9 6.5 6.5-2.9 6.5-6.5 6.5z"/><path class="st0" d="M266 115.5c-1.4 0-2.5 1.1-2.5 2.5s1.1 2.5 2.5 2.5 2.5-1.1 2.5-2.5-1.1-2.5-2.5-2.5zm0 4c-.9 0-1.5-.7-1.5-1.5s.6-1.5 1.5-1.5 1.5.7 1.5 1.5-.6 1.5-1.5 1.5z"/><circle class="st0" cx="269" cy="121" r=".5"/><path class="st0" d="M258.5 99h-18c-.9 0-1.5-.7-1.5-1.5v-2c0-.8.6-1.5 1.5-1.5H259V73h-18.5c-1.4 0-2.5 1.1-2.5 2.5v22c0 1.4 1.1 2.5 2.5 2.5h18v-1zM239 75.5c0-.8.6-1.5 1.5-1.5H258v19h-17.5c-.6 0-1.1.2-1.5.5v-18z"/><path class="st0" d="M240.5 95h18v1h-18zm0 2h18v1h-18zm-216-70h16c2.5 0 4.5-2 4.5-4.5v-16C45 4 43 2 40.5 2h-16C22 2 20 4 20 6.5v16c0 2.5 2 4.5 4.5 4.5zM21 6.5C21 4.6 22.6 3 24.5 3h16c2 0 3.5 1.6 3.5 3.5v16c0 2-1.5 3.5-3.5 3.5h-16c-2 0-3.5-1.5-3.5-3.5v-16z"/><path class="st0" d="M37 20c1.2 0 2.2-.5 3-1.4v.9h1V12h-1v1.4c-.8-.9-1.8-1.4-3-1.4-2.2 0-4 1.8-4 4s1.8 4 4 4zm0-7c1.7 0 3 1.4 3 3s-1.3 3-3 3-3-1.4-3-3 1.3-3 3-3zm-10.9 3H31l1.2 3.5h1L28.5 5.9l-4.7 13.6h1l1.3-3.5zm4.4-1h-4.1l2.1-5.9 2 5.9zm30 12.8c.8-1.4 2-2.5 3.4-3.1L64 26h1.9v2h5v-2h1.9l.1-1.4c1.4.6 2.7 1.7 3.4 3.1l.2.2h2.3v-.5c0-4.4-1.7-7.8-5.2-11.1L74 13c0-5.5-1.8-9.5-5.2-11.9l-.3-.2-.3.2c-3.4 2.4-5.2 6.4-5.2 12l.2 3.4c-3.6 3.3-5.2 6.7-5.2 11v.5h2.3l.2-.2zM70 27h-3v-1h3v1zm8 0h-.8c-.9-1.5-2.4-2.7-4.1-3.4l.4-5.9c3 2.8 4.4 5.8 4.5 9.3zM68.5 2.1C71.5 4.3 73 8 73 13l-.9 12h-7.2L64 13c0-5 1.5-8.7 4.5-10.9zM59 27c.1-3.5 1.5-6.5 4.3-9.3l.5 5.9c-1.7.6-3.1 1.9-4 3.4H59z"/><path class="st0" d="M68.5 14c1.4 0 2.5-1.1 2.5-2.5S69.9 9 68.5 9 66 10.1 66 11.5s1.1 2.5 2.5 2.5zm0-4c.8 0 1.5.6 1.5 1.5s-.7 1.5-1.5 1.5-1.5-.6-1.5-1.5.7-1.5 1.5-1.5zM121 6.5c0-.8-.7-1.5-1.5-1.5h-17c-.4 0-1.1-.2-1.3-.6l-1.6-1.6c-.5-.5-1.4-.8-2.1-.8h-8c-.8 0-1.5.6-1.5 1.5V27h33V6.5zM89.5 3h8c.4 0 1.1.2 1.3.5l1.6 1.6c.5.5 1.3.8 2.1.8h17c.3 0 .5.2.5.5V8H89V3.5c0-.3.2-.5.5-.5zM89 26V9h31v17H89zm43.5 1c2.5 0 4.5-2 4.5-4.5 0-1.5-.7-2.8-1.8-3.6l5.3-7.5 5.3 7.6c-1.1.8-1.8 2.1-1.8 3.6 0 2.5 2 4.5 4.5 4.5s4.5-2 4.5-4.5-2-4.5-4.5-4.5c-.6 0-1.2.1-1.8.4l-5.3-7.5c2.1-.4 3.6-2.2 3.6-4.4 0-2.5-2-4.5-4.5-4.5S136 4 136 6.5c0 2.2 1.6 4 3.6 4.4l-5.3 7.5c-.6-.2-1.1-.4-1.8-.4-2.5 0-4.5 2-4.5 4.5s2 4.5 4.5 4.5zm19.5-4.5c0 2-1.6 3.5-3.5 3.5s-3.5-1.5-3.5-3.5 1.6-3.5 3.5-3.5 3.5 1.5 3.5 3.5zm-15-16c0-1.9 1.6-3.5 3.5-3.5s3.5 1.6 3.5 3.5-1.6 3.5-3.5 3.5-3.5-1.6-3.5-3.5zM132.5 19c1.9 0 3.5 1.5 3.5 3.5s-1.6 3.5-3.5 3.5-3.5-1.5-3.5-3.5 1.6-3.5 3.5-3.5zm69 8h5.5c.3 0 .5-.2.5-.5v-4c0-.3-.2-.5-.5-.5h-5.5c-.3 0-.5.2-.5.5v4c0 .3.2.5.5.5zm.5-4h4.5v3H202v-3zm14-6.5c0-.3-.2-.5-.5-.5h-6c-.3 0-.5.2-.5.5v10c0 .3.2.5.5.5h6c.3 0 .5-.2.5-.5v-10zm-1 9.5h-5v-9h5v9zm2.5-16c-.3 0-.5.2-.5.5v16c0 .3.2.5.5.5h6c.3 0 .5-.2.5-.5v-16c0-.3-.2-.5-.5-.5h-6zm5.5 16h-5V11h5v15zm-21.825-6.83l22.003-16.493.6.8-22.003 16.494zM162.5 26h28c.9 0 1.5-.6 1.5-1.5v-15c0-.9-.6-1.5-1.5-1.5H183V6.5c0-1.4-1.1-2.5-2.5-2.5h-8c-1.4 0-2.5 1.1-2.5 2.5V8h-7.5c-.9 0-1.5.6-1.5 1.5v15c0 .9.6 1.5 1.5 1.5zm3.5-1v-3h21v3h-21zm24.5 0H188v-3.5c0-.3-.2-.5-.5-.5h-22c-.3 0-.5.2-.5.5V25h-2.5c-.3 0-.5-.2-.5-.5V14h12v3.5c0 .3.2.5.5.5h4c.3 0 .5-.2.5-.5V14h12v10.5c0 .3-.2.5-.5.5zM175 17v-5h3v5h-3zm-4-10.5c0-.8.6-1.5 1.5-1.5h8c.9 0 1.5.7 1.5 1.5V8h-11V6.5zM162.5 9h28c.3 0 .5.2.5.5V13h-12v-1.5c0-.3-.2-.5-.5-.5h-4c-.3 0-.5.2-.5.5V13h-12V9.5c0-.3.2-.5.5-.5z"/><path class="st0" d="M176 13.5h1v2h-1zM241.5 29c1.5 0 2.9-.5 4.2-1.3.9.2 1.9.3 2.8.3s1.9-.1 2.8-.3c1.2.9 2.7 1.3 4.2 1.3 4.1 0 7.5-3.4 7.5-7.5 0-1.5-.5-3-1.3-4.2.2-.9.3-1.9.3-2.8s-.1-1.9-.3-2.8c.9-1.2 1.3-2.7 1.3-4.2 0-4.2-3.4-7.5-7.5-7.5-1.5 0-2.9.4-4.2 1.3-.9-.2-1.9-.3-2.8-.3s-1.9.1-2.8.3C244.4.4 243 0 241.5 0c-4.1 0-7.5 3.3-7.5 7.5 0 1.5.4 2.9 1.3 4.2-.2.9-.3 1.9-.3 2.8s.1 1.9.3 2.8c-.9 1.2-1.3 2.7-1.3 4.2 0 4.1 3.4 7.5 7.5 7.5zm11.3-11h7.8c-1.2 4.1-4.4 7.3-8.5 8.5v-7.8c.1-.2.4-.5.7-.7zm8.2-3.5c0 .9-.1 1.7-.2 2.5h-7.4c.4-.8.6-1.6.6-2.5s-.2-1.8-.6-2.5h7.4c.1.8.2 1.6.2 2.5zm-8.2-3.5c-.2-.2-.4-.5-.8-.8V2.5c4.1 1.2 7.3 4.4 8.5 8.5h-7.7zm.2 3.5c0 2.5-2 4.5-4.5 4.5s-4.5-2-4.5-4.5 2-4.5 4.5-4.5 4.5 2 4.5 4.5zm-17 0c0-.9.1-1.7.2-2.5h7.4c-.4.8-.6 1.6-.6 2.5s.2 1.8.6 2.5h-7.4c-.1-.8-.2-1.6-.2-2.5zm8.2-3.5h-7.8c1.2-4.1 4.4-7.3 8.5-8.5v7.8c-.1.2-.4.5-.7.7zm0 7c.2.2.4.5.8.8v7.8c-4.1-1.2-7.3-4.4-8.5-8.5h7.7zm1.8 8.8v-7.4c.8.4 1.6.6 2.5.6s1.8-.2 2.5-.6v7.4c-.8.1-1.6.2-2.5.2s-1.7-.1-2.5-.2zm16-5.3c0 3.6-2.9 6.5-6.5 6.5-1 0-1.9-.2-2.9-.6 4.1-1.4 7.4-4.6 8.7-8.7.5.8.7 1.8.7 2.8zM255.5 1c3.6 0 6.5 2.9 6.5 6.5 0 1-.2 1.9-.6 2.9-1.4-4.1-4.6-7.4-8.7-8.7.9-.5 1.8-.7 2.8-.7zM251 2.2v7.4c-.8-.4-1.6-.6-2.5-.6s-1.8.2-2.5.6V2.2c.8-.2 1.6-.2 2.5-.2s1.7.1 2.5.2zm-16 5.3c0-3.6 2.9-6.5 6.5-6.5 1 0 1.9.2 2.9.6-4.1 1.4-7.4 4.6-8.7 8.7-.5-.9-.7-1.8-.7-2.8zm9.4 19.9c-.9.5-1.9.6-2.9.6-3.6 0-6.5-2.9-6.5-6.5 0-1 .2-2 .6-2.9 1.4 4.2 4.6 7.4 8.8 8.8zm66.1-.4h20c1.4 0 2.5-1.1 2.5-2.5v-20c0-1.4-1.1-2.5-2.5-2.5h-20c-1.4 0-2.5 1.1-2.5 2.5v20c0 1.4 1.1 2.5 2.5 2.5zm20-1h-10c-.9 0-1.5-.6-1.5-1.5V21h5.5v-1H319v-1h9.5v-1H319v-1h5.5v-1H319v-3h13v11.5c0 .9-.6 1.5-1.5 1.5zm1.5-14h-13V8.5c0-.8.6-1.5 1.5-1.5h10c.9 0 1.5.7 1.5 1.5V12zm-23-7.5c0-.8.6-1.5 1.5-1.5h20c.9 0 1.5.7 1.5 1.5v2c-.4-.3-1-.5-1.5-.5h-10c-1.2 0-2.2.8-2.5 2h-5.5v1h5.5v1h-5.5v1h5.5v1h-1.5v1h1.5v1h-1.5v1h1.5v1h-1.5v1h1.5v1h-5.5v1h5.5v1h-5.5v1h5.5v3.5c0 .5.2 1.1.5 1.5h-8c-.9 0-1.5-.6-1.5-1.5v-20z"/><circle class="st0" cx="311" cy="5" r=".5"/><circle class="st0" cx="313.5" cy="5" r=".5"/><circle class="st0" cx="316" cy="5" r=".5"/><circle class="st0" cx="322" cy="9.5" r=".5"/><circle class="st0" cx="324.5" cy="9.5" r=".5"/><circle class="st0" cx="327" cy="9.5" r=".5"/></svg>